<?xml version="1.0" encoding="utf-8"?>
<!-- Generator: Adobe Illustrator 25.0.1, SVG Export Plug-In . SVG Version: 6.00 Build 0)  -->
<svg version="1.1" id="Capa_1" xmlns="http://www.w3.org/2000/svg" xmlns:xlink="http://www.w3.org/1999/xlink" x="0px" y="0px"
	 viewBox="0 0 512 512" style="enable-background:new 0 0 512 512;" xml:space="preserve">
<g>
	<g>
		<path d="M472.6,0H39.4c-5.4,0-9.8,4.4-9.8,9.8v169.7c0,71.4,21,140.5,60.8,199.8s95.8,104.9,161.9,132c1.2,0.5,2.5,0.7,3.7,0.7
			s2.5-0.2,3.7-0.7c66.1-27,122.1-72.7,161.9-132s60.8-128.4,60.8-199.8V9.8C482.5,4.4,478.1,0,472.6,0z M462.8,179.5
			c0,136.8-81,258.8-206.8,312c-125.7-53.2-206.8-175.2-206.8-312V19.7h413.5L462.8,179.5L462.8,179.5z"/>
	</g>
</g>
<g>
	<g>
		<path d="M433.2,39.4H78.8c-5.4,0-9.8,4.4-9.8,9.8v130.3c0,63.6,18.7,125.1,54.2,177.8c32.1,47.9,76.7,86.2,128.7,110.7
			c1.3,0.6,2.8,0.9,4.2,0.9c1.4,0,2.9-0.3,4.2-0.9c52.1-24.5,96.6-62.8,128.7-110.7c35.4-52.8,54.2-114.3,54.2-177.8V49.2
			C443.1,43.8,438.7,39.4,433.2,39.4z M88.6,59.1h334.8v120.4l0,0c0,59.6-17.6,117.3-50.8,166.9C343.3,390,303,425.1,256,448.2
			c-47-23.1-87.3-58.2-116.6-101.8c-33.2-49.5-50.8-107.2-50.8-166.9"/>
	</g>
</g>
<path d="M419.6,114.4H285.8c-3.3,0-3.1-1.4-3.1-8.1v-39c0-6.6-0.1-8.2-3.4-8.2H232c-3.3,0-3.1,1.7-3.1,8.3v38.3
	c0,6.6,1.1,8.7-2.2,8.7l-134.1,0.4c-3.3,0-4,6.6-4,13.3v15.4c0,6.6,2.2,9.9,5.5,9.9h125.6c3.3,0,9.2-0.4,9.2,6.2v266.6
	c0,6.6-0.1,8.3,3.1,8.3l48.1,0c3.3,0,2.7-2.9,2.7-9.5V160.9c0-6.6,2.1-7.5,5.4-7.5h131.4c3.3,0,3.9-2.2,3.9-8.8v-23.7
	C423.5,114.3,422.9,114.4,419.6,114.4z"/>
</svg>
