<?xml version="1.0" encoding="utf-8"?>
<!-- Generator: Adobe Illustrator 25.0.1, SVG Export Plug-In . SVG Version: 6.00 Build 0)  -->
<svg version="1.1" id="Capa_1" xmlns="http://www.w3.org/2000/svg" xmlns:xlink="http://www.w3.org/1999/xlink" x="0px" y="0px"
	 viewBox="0 0 210 699.2" style="enable-background:new 0 0 210 699.2;" xml:space="preserve">
<g>
	<g>
		<path d="M105,0c-4.7,0-9.2,2.2-12,6L3,126c-2.2,3-3.3,6.7-2.9,10.4l28.8,308.3C12.1,451.1,0,467.3,0,486.6l0,30
			c0,8.3,6.7,15,15,15h45l0,68.8l-4.4,4.4c-17.5,17.5-17.5,46.1,0,63.6L73.2,686c17.5,17.5,46.1,17.5,63.6,0l17.6-17.6
			c17.5-17.5,17.5-46.1,0-63.6l-4.4-4.4l0-68.8h45c8.3,0,15-6.7,15-15l0-30c0-19.3-12.1-35.6-28.8-42l28.8-308.3
			c0.3-3.7-0.7-7.4-2.9-10.4L117,6C114.2,2.2,109.7,0,105,0z M133.2,626c5.8,5.8,5.8,15.4,0,21.2l-17.6,17.6
			c-5.8,5.8-15.4,5.8-21.2,0l-17.6-17.6c-5.8-5.8-5.8-15.4,0-21.2l4.4-4.4h47.6L133.2,626z M120,591.6H90v-60h30L120,591.6z
			 M180,486.6l0,15l-150,0l0-15c0-8.3,6.7-15,15-15h120C173.3,471.7,180,478.4,180,486.6z M179.5,139.4l-28.2,302.3l-31.3,0V195
			c0-8.3-6.7-15-15-15c-8.3,0-15,6.7-15,15l0,246.7H58.7L30.5,139.4L105,40L179.5,139.4z"/>
	</g>
</g>
</svg>
